<?xml version="1.0" encoding="UTF-8"?>
<svg xmlns="http://www.w3.org/2000/svg" xmlns:xlink="http://www.w3.org/1999/xlink" width="50px" height="50px" viewBox="0 0 50 50" version="1.1">
<defs>
<clipPath id="clip1">
  <path d="M 6.476562 6.476562 L 43.476562 6.476562 L 43.476562 43.476562 L 6.476562 43.476562 Z M 6.476562 6.476562 "/>
</clipPath>
</defs>
<g id="surface1">
<path style=" stroke:none;fill-rule:nonzero;fill:rgb(40%,80.392157%,91.764706%);fill-opacity:1;" d="M 13.257812 10.175781 C 13.257812 11.878906 11.878906 13.257812 10.175781 13.257812 C 8.472656 13.257812 7.09375 11.878906 7.09375 10.175781 C 7.09375 8.472656 8.472656 7.09375 10.175781 7.09375 C 11.878906 7.09375 13.257812 8.472656 13.257812 10.175781 "/>
<path style=" stroke:none;fill-rule:nonzero;fill:rgb(40%,80.392157%,91.764706%);fill-opacity:1;" d="M 13.257812 29.910156 C 13.257812 31.613281 11.878906 32.992188 10.175781 32.992188 C 8.472656 32.992188 7.09375 31.613281 7.09375 29.910156 C 7.09375 28.207031 8.472656 26.824219 10.175781 26.824219 C 11.878906 26.824219 13.257812 28.207031 13.257812 29.910156 "/>
<path style=" stroke:none;fill-rule:nonzero;fill:rgb(40%,80.392157%,91.764706%);fill-opacity:1;" d="M 13.257812 20.042969 C 13.257812 21.746094 11.878906 23.125 10.175781 23.125 C 8.472656 23.125 7.09375 21.746094 7.09375 20.042969 C 7.09375 18.339844 8.472656 16.957031 10.175781 16.957031 C 11.878906 16.957031 13.257812 18.339844 13.257812 20.042969 "/>
<path style=" stroke:none;fill-rule:nonzero;fill:rgb(40%,80.392157%,91.764706%);fill-opacity:1;" d="M 13.257812 39.777344 C 13.257812 41.480469 11.878906 42.859375 10.175781 42.859375 C 8.472656 42.859375 7.09375 41.480469 7.09375 39.777344 C 7.09375 38.074219 8.472656 36.691406 10.175781 36.691406 C 11.878906 36.691406 13.257812 38.074219 13.257812 39.777344 "/>
<path style=" stroke:none;fill-rule:nonzero;fill:rgb(40%,80.392157%,91.764706%);fill-opacity:1;" d="M 28.058594 24.976562 C 28.058594 26.679688 26.679688 28.058594 24.976562 28.058594 C 23.273438 28.058594 21.890625 26.679688 21.890625 24.976562 C 21.890625 23.273438 23.273438 21.890625 24.976562 21.890625 C 26.679688 21.890625 28.058594 23.273438 28.058594 24.976562 "/>
<path style=" stroke:none;fill-rule:nonzero;fill:rgb(40%,80.392157%,91.764706%);fill-opacity:1;" d="M 28.058594 15.109375 C 28.058594 16.8125 26.679688 18.191406 24.976562 18.191406 C 23.273438 18.191406 21.890625 16.8125 21.890625 15.109375 C 21.890625 13.40625 23.273438 12.027344 24.976562 12.027344 C 26.679688 12.027344 28.058594 13.40625 28.058594 15.109375 "/>
<path style=" stroke:none;fill-rule:nonzero;fill:rgb(40%,80.392157%,91.764706%);fill-opacity:1;" d="M 28.058594 34.84375 C 28.058594 36.546875 26.679688 37.925781 24.976562 37.925781 C 23.273438 37.925781 21.890625 36.546875 21.890625 34.84375 C 21.890625 33.140625 23.273438 31.757812 24.976562 31.757812 C 26.679688 31.757812 28.058594 33.140625 28.058594 34.84375 "/>
<path style=" stroke:none;fill-rule:nonzero;fill:rgb(40%,80.392157%,91.764706%);fill-opacity:1;" d="M 42.859375 20.042969 C 42.859375 21.746094 41.480469 23.125 39.777344 23.125 C 38.074219 23.125 36.691406 21.746094 36.691406 20.042969 C 36.691406 18.339844 38.074219 16.957031 39.777344 16.957031 C 41.480469 16.957031 42.859375 18.339844 42.859375 20.042969 "/>
<path style=" stroke:none;fill-rule:nonzero;fill:rgb(40%,80.392157%,91.764706%);fill-opacity:1;" d="M 42.859375 29.910156 C 42.859375 31.613281 41.480469 32.992188 39.777344 32.992188 C 38.074219 32.992188 36.691406 31.613281 36.691406 29.910156 C 36.691406 28.207031 38.074219 26.824219 39.777344 26.824219 C 41.480469 26.824219 42.859375 28.207031 42.859375 29.910156 "/>
<path style=" stroke:none;fill-rule:nonzero;fill:rgb(16.862745%,17.254902%,17.647059%);fill-opacity:1;" d="M 10.175781 8.941406 C 9.496094 8.941406 8.941406 9.496094 8.941406 10.175781 C 8.941406 10.515625 9.21875 10.792969 9.558594 10.792969 C 9.898438 10.792969 10.175781 10.515625 10.175781 10.175781 C 10.515625 10.175781 10.792969 9.898438 10.792969 9.558594 C 10.792969 9.21875 10.515625 8.941406 10.175781 8.941406 "/>
<path style=" stroke:none;fill-rule:nonzero;fill:rgb(16.862745%,17.254902%,17.647059%);fill-opacity:1;" d="M 10.175781 29.910156 C 10.515625 29.910156 10.792969 29.632812 10.792969 29.292969 C 10.792969 28.953125 10.515625 28.675781 10.175781 28.675781 C 9.496094 28.675781 8.941406 29.230469 8.941406 29.910156 C 8.941406 30.25 9.21875 30.527344 9.558594 30.527344 C 9.898438 30.527344 10.175781 30.25 10.175781 29.910156 "/>
<path style=" stroke:none;fill-rule:nonzero;fill:rgb(16.862745%,17.254902%,17.647059%);fill-opacity:1;" d="M 10.175781 18.808594 C 9.496094 18.808594 8.941406 19.363281 8.941406 20.042969 C 8.941406 20.382812 9.21875 20.660156 9.558594 20.660156 C 9.898438 20.660156 10.175781 20.382812 10.175781 20.042969 C 10.515625 20.042969 10.792969 19.765625 10.792969 19.425781 C 10.792969 19.085938 10.515625 18.808594 10.175781 18.808594 "/>
<path style=" stroke:none;fill-rule:nonzero;fill:rgb(16.862745%,17.254902%,17.647059%);fill-opacity:1;" d="M 10.175781 38.542969 C 9.496094 38.542969 8.941406 39.097656 8.941406 39.777344 C 8.941406 40.113281 9.21875 40.390625 9.558594 40.390625 C 9.898438 40.390625 10.175781 40.113281 10.175781 39.777344 C 10.515625 39.777344 10.792969 39.5 10.792969 39.160156 C 10.792969 38.820312 10.515625 38.542969 10.175781 38.542969 "/>
<path style=" stroke:none;fill-rule:nonzero;fill:rgb(16.862745%,17.254902%,17.647059%);fill-opacity:1;" d="M 25.59375 24.359375 C 25.59375 24.019531 25.316406 23.742188 24.976562 23.742188 C 24.296875 23.742188 23.742188 24.296875 23.742188 24.976562 C 23.742188 25.316406 24.019531 25.59375 24.359375 25.59375 C 24.699219 25.59375 24.976562 25.316406 24.976562 24.976562 C 25.316406 24.976562 25.59375 24.699219 25.59375 24.359375 "/>
<path style=" stroke:none;fill-rule:nonzero;fill:rgb(16.862745%,17.254902%,17.647059%);fill-opacity:1;" d="M 24.359375 15.726562 C 24.699219 15.726562 24.976562 15.449219 24.976562 15.109375 C 25.316406 15.109375 25.59375 14.832031 25.59375 14.492188 C 25.59375 14.152344 25.316406 13.875 24.976562 13.875 C 24.296875 13.875 23.742188 14.429688 23.742188 15.109375 C 23.742188 15.449219 24.019531 15.726562 24.359375 15.726562 "/>
<path style=" stroke:none;fill-rule:nonzero;fill:rgb(16.862745%,17.254902%,17.647059%);fill-opacity:1;" d="M 24.976562 33.609375 C 24.296875 33.609375 23.742188 34.164062 23.742188 34.84375 C 23.742188 35.183594 24.019531 35.457031 24.359375 35.457031 C 24.699219 35.457031 24.976562 35.183594 24.976562 34.84375 C 25.316406 34.84375 25.59375 34.566406 25.59375 34.226562 C 25.59375 33.886719 25.316406 33.609375 24.976562 33.609375 "/>
<path style=" stroke:none;fill-rule:nonzero;fill:rgb(16.862745%,17.254902%,17.647059%);fill-opacity:1;" d="M 39.160156 20.660156 C 39.5 20.660156 39.777344 20.382812 39.777344 20.042969 C 40.113281 20.042969 40.390625 19.765625 40.390625 19.425781 C 40.390625 19.085938 40.113281 18.808594 39.777344 18.808594 C 39.097656 18.808594 38.542969 19.363281 38.542969 20.042969 C 38.542969 20.382812 38.820312 20.660156 39.160156 20.660156 "/>
<path style=" stroke:none;fill-rule:nonzero;fill:rgb(16.862745%,17.254902%,17.647059%);fill-opacity:1;" d="M 39.160156 30.527344 C 39.5 30.527344 39.777344 30.25 39.777344 29.910156 C 40.113281 29.910156 40.390625 29.632812 40.390625 29.292969 C 40.390625 28.953125 40.113281 28.675781 39.777344 28.675781 C 39.097656 28.675781 38.542969 29.230469 38.542969 29.910156 C 38.542969 30.25 38.820312 30.527344 39.160156 30.527344 "/>
<g clip-path="url(#clip1)" clip-rule="nonzero">
<path style=" stroke:none;fill-rule:nonzero;fill:rgb(16.862745%,17.254902%,17.647059%);fill-opacity:1;" d="M 36.761719 27.769531 C 36.671875 27.898438 36.585938 28.03125 36.511719 28.171875 L 33.515625 27.171875 L 34.84375 25.847656 Z M 42.242188 29.910156 C 42.242188 31.269531 41.136719 32.375 39.777344 32.375 C 38.414062 32.375 37.308594 31.269531 37.308594 29.910156 C 37.308594 28.546875 38.414062 27.441406 39.777344 27.441406 C 41.136719 27.441406 42.242188 28.546875 42.242188 29.910156 Z M 28.238281 33.105469 C 28.164062 32.964844 28.082031 32.832031 27.988281 32.703125 L 32.542969 28.148438 L 36.125 29.34375 C 36.09375 29.527344 36.074219 29.714844 36.074219 29.910156 C 36.074219 30.101562 36.09375 30.289062 36.125 30.476562 Z M 24.976562 37.308594 C 23.613281 37.308594 22.507812 36.203125 22.507812 34.84375 C 22.507812 33.480469 23.613281 32.375 24.976562 32.375 C 26.335938 32.375 27.441406 33.480469 27.441406 34.84375 C 27.441406 36.203125 26.335938 37.308594 24.976562 37.308594 Z M 13.441406 38.039062 C 13.363281 37.898438 13.28125 37.765625 13.1875 37.636719 L 17.742188 33.082031 L 21.324219 34.277344 C 21.292969 34.460938 21.277344 34.648438 21.277344 34.84375 C 21.277344 35.035156 21.292969 35.222656 21.324219 35.410156 Z M 10.175781 42.242188 C 8.816406 42.242188 7.707031 41.136719 7.707031 39.777344 C 7.707031 38.414062 8.816406 37.308594 10.175781 37.308594 C 11.535156 37.308594 12.640625 38.414062 12.640625 39.777344 C 12.640625 41.136719 11.535156 42.242188 10.175781 42.242188 Z M 13.828125 30.476562 C 13.855469 30.289062 13.875 30.101562 13.875 29.910156 C 13.875 29.714844 13.855469 29.527344 13.828125 29.34375 L 21.710938 26.710938 C 21.785156 26.851562 21.871094 26.988281 21.960938 27.113281 L 17.410156 31.667969 Z M 13.828125 20.609375 C 13.855469 20.421875 13.875 20.234375 13.875 20.042969 C 13.875 19.847656 13.855469 19.660156 13.828125 19.476562 L 17.410156 18.28125 L 21.960938 22.835938 C 21.871094 22.964844 21.785156 23.097656 21.710938 23.238281 Z M 10.175781 22.507812 C 8.816406 22.507812 7.707031 21.402344 7.707031 20.042969 C 7.707031 18.679688 8.816406 17.574219 10.175781 17.574219 C 11.535156 17.574219 12.640625 18.679688 12.640625 20.042969 C 12.640625 21.402344 11.535156 22.507812 10.175781 22.507812 Z M 13.1875 12.316406 C 13.28125 12.1875 13.363281 12.050781 13.441406 11.914062 L 21.324219 14.542969 C 21.292969 14.726562 21.277344 14.917969 21.277344 15.109375 C 21.277344 15.300781 21.292969 15.488281 21.324219 15.675781 L 17.742188 16.871094 Z M 7.707031 10.175781 C 7.707031 8.816406 8.816406 7.707031 10.175781 7.707031 C 11.535156 7.707031 12.640625 8.816406 12.640625 10.175781 C 12.640625 11.535156 11.535156 12.640625 10.175781 12.640625 C 8.816406 12.640625 7.707031 11.535156 7.707031 10.175781 Z M 24.976562 12.640625 C 26.335938 12.640625 27.441406 13.746094 27.441406 15.109375 C 27.441406 16.46875 26.335938 17.574219 24.976562 17.574219 C 23.613281 17.574219 22.507812 16.46875 22.507812 15.109375 C 22.507812 13.746094 23.613281 12.640625 24.976562 12.640625 Z M 36.125 19.476562 C 36.09375 19.660156 36.074219 19.847656 36.074219 20.042969 C 36.074219 20.234375 36.09375 20.421875 36.125 20.609375 L 32.542969 21.804688 L 27.988281 17.246094 C 28.082031 17.121094 28.164062 16.984375 28.238281 16.847656 Z M 39.777344 17.574219 C 41.136719 17.574219 42.242188 18.679688 42.242188 20.042969 C 42.242188 21.402344 41.136719 22.507812 39.777344 22.507812 C 38.414062 22.507812 37.308594 21.402344 37.308594 20.042969 C 37.308594 18.679688 38.414062 17.574219 39.777344 17.574219 Z M 33.515625 22.777344 L 36.511719 21.777344 C 36.585938 21.917969 36.671875 22.054688 36.761719 22.179688 L 34.84375 24.105469 Z M 28.628906 25.542969 C 28.65625 25.355469 28.675781 25.167969 28.675781 24.976562 C 28.675781 24.78125 28.65625 24.59375 28.628906 24.410156 L 32.210938 23.214844 L 33.96875 24.976562 L 32.210938 26.738281 Z M 22.507812 24.976562 C 22.507812 23.613281 23.613281 22.507812 24.976562 22.507812 C 26.335938 22.507812 27.441406 23.613281 27.441406 24.976562 C 27.441406 26.335938 26.335938 27.441406 24.976562 27.441406 C 23.613281 27.441406 22.507812 26.335938 22.507812 24.976562 Z M 24.976562 18.808594 C 25.773438 18.808594 26.511719 18.554688 27.113281 18.121094 L 31.234375 22.238281 L 28.238281 23.238281 C 27.617188 22.074219 26.386719 21.277344 24.976562 21.277344 C 24.179688 21.277344 23.441406 21.53125 22.835938 21.960938 L 18.71875 17.84375 L 21.710938 16.847656 C 22.332031 18.011719 23.5625 18.808594 24.976562 18.808594 Z M 27.113281 31.828125 C 26.511719 31.398438 25.773438 31.140625 24.976562 31.140625 C 23.5625 31.140625 22.332031 31.941406 21.710938 33.105469 L 18.71875 32.105469 L 22.835938 27.988281 C 23.441406 28.421875 24.179688 28.675781 24.976562 28.675781 C 26.386719 28.675781 27.617188 27.878906 28.238281 26.710938 L 31.234375 27.710938 Z M 37.636719 23.054688 C 38.242188 23.488281 38.976562 23.742188 39.777344 23.742188 C 41.816406 23.742188 43.476562 22.082031 43.476562 20.042969 C 43.476562 18.003906 41.816406 16.34375 39.777344 16.34375 C 38.363281 16.34375 37.132812 17.140625 36.511719 18.304688 L 28.628906 15.675781 C 28.65625 15.488281 28.675781 15.300781 28.675781 15.109375 C 28.675781 13.070312 27.015625 11.410156 24.976562 11.410156 C 23.5625 11.410156 22.332031 12.207031 21.710938 13.371094 L 13.828125 10.742188 C 13.855469 10.554688 13.875 10.367188 13.875 10.175781 C 13.875 8.136719 12.214844 6.476562 10.175781 6.476562 C 8.136719 6.476562 6.476562 8.136719 6.476562 10.175781 C 6.476562 12.214844 8.136719 13.875 10.175781 13.875 C 10.972656 13.875 11.710938 13.621094 12.316406 13.1875 L 16.433594 17.304688 L 13.441406 18.304688 C 12.816406 17.140625 11.589844 16.34375 10.175781 16.34375 C 8.136719 16.34375 6.476562 18.003906 6.476562 20.042969 C 6.476562 22.082031 8.136719 23.742188 10.175781 23.742188 C 11.589844 23.742188 12.816406 22.945312 13.441406 21.777344 L 21.324219 24.410156 C 21.292969 24.59375 21.277344 24.78125 21.277344 24.976562 C 21.277344 25.167969 21.292969 25.355469 21.324219 25.542969 L 13.441406 28.171875 C 12.816406 27.007812 11.589844 26.207031 10.175781 26.207031 C 9.367188 26.207031 8.601562 26.464844 7.953125 26.949219 C 7.683594 27.152344 7.628906 27.542969 7.832031 27.8125 C 8.035156 28.085938 8.425781 28.140625 8.695312 27.933594 C 9.125 27.613281 9.636719 27.441406 10.175781 27.441406 C 11.535156 27.441406 12.640625 28.546875 12.640625 29.910156 C 12.640625 31.269531 11.535156 32.375 10.175781 32.375 C 8.816406 32.375 7.707031 31.269531 7.707031 29.910156 C 7.707031 29.570312 7.433594 29.292969 7.09375 29.292969 C 6.753906 29.292969 6.476562 29.570312 6.476562 29.910156 C 6.476562 31.949219 8.136719 33.609375 10.175781 33.609375 C 11.589844 33.609375 12.816406 32.8125 13.441406 31.644531 L 16.433594 32.644531 L 12.316406 36.761719 C 11.710938 36.332031 10.972656 36.074219 10.175781 36.074219 C 8.136719 36.074219 6.476562 37.734375 6.476562 39.777344 C 6.476562 41.816406 8.136719 43.476562 10.175781 43.476562 C 12.214844 43.476562 13.875 41.816406 13.875 39.777344 C 13.875 39.582031 13.855469 39.394531 13.828125 39.210938 L 21.710938 36.578125 C 22.332031 37.746094 23.5625 38.542969 24.976562 38.542969 C 27.015625 38.542969 28.675781 36.882812 28.675781 34.84375 C 28.675781 34.648438 28.65625 34.460938 28.628906 34.277344 L 36.511719 31.644531 C 37.132812 32.8125 38.363281 33.609375 39.777344 33.609375 C 41.816406 33.609375 43.476562 31.949219 43.476562 29.910156 C 43.476562 27.867188 41.816406 26.207031 39.777344 26.207031 C 38.976562 26.207031 38.242188 26.464844 37.636719 26.894531 L 35.714844 24.976562 L 37.636719 23.054688 "/>
</g>
</g>
</svg>
